<svg xmlns="http://www.w3.org/2000/svg" xmlns:xlink="http://www.w3.org/1999/xlink" id="Layer_2" viewBox="0 0 762.2 262.23"><defs><style>.cls-1{fill:url(#linear-gradient-2);}.cls-2{fill:#fff;}.cls-3{fill:#939697;}.cls-4{clip-path:url(#clippath-2);}.cls-5{clip-path:url(#clippath-1);}.cls-6{clip-path:url(#clippath);}.cls-7{fill:none;}.cls-8{fill:url(#linear-gradient-3);}.cls-9{fill:url(#linear-gradient);}</style><clipPath id="clippath"><polygon class="cls-7" points="82.07 125 .5 62.41 .5 97.9 82.07 160.49 82.07 125"></polygon></clipPath><linearGradient id="linear-gradient" x1="333.24" y1="848.13" x2="336.78" y2="848.13" gradientTransform="translate(-7673.74 -19420.98) scale(23.03)" gradientUnits="userSpaceOnUse"><stop offset="0" stop-color="#f8bb18"></stop><stop offset="0" stop-color="#f8bb18"></stop><stop offset="1" stop-color="#f1e907"></stop></linearGradient><clipPath id="clippath-1"><polygon class="cls-7" points="82.07 70.47 163.65 133.06 163.65 97.57 82.07 34.98 82.07 70.47"></polygon></clipPath><linearGradient id="linear-gradient-2" x1="335.78" y1="847.27" x2="339.33" y2="847.27" gradientTransform="translate(-7650.71 -19428.72) scale(23.03)" gradientUnits="userSpaceOnUse"><stop offset="0" stop-color="#9b509f"></stop><stop offset="0" stop-color="#9b509f"></stop><stop offset="1" stop-color="#682a7b"></stop></linearGradient><clipPath id="clippath-2"><polygon class="cls-7" points="82.07 159.98 163.65 97.38 163.65 132.87 82.07 195.47 82.07 159.98"></polygon></clipPath><linearGradient id="linear-gradient-3" x1="335.78" y1="849.22" x2="339.33" y2="849.22" gradientTransform="translate(-7650.71 -19411.1) scale(23.03)" gradientUnits="userSpaceOnUse"><stop offset="0" stop-color="#045470"></stop><stop offset="0" stop-color="#045470"></stop><stop offset="1" stop-color="#1f769c"></stop></linearGradient></defs><g id="Layer_2-2"><g id="Layer_1-2"><g><path class="cls-2" d="m212.1,123.76l-28.38-95.56h23.48l17.15,65.13,17.15-65.13h21.44l-28.38,95.56v47.37h-22.46v-47.37h0Z"></path><path class="cls-2" d="m267.03,62.5c0-22.87,12.05-35.94,34.1-35.94s34.1,13.07,34.1,35.94v74.32c0,22.87-12.05,35.94-34.1,35.94s-34.1-13.07-34.1-35.94V62.5Zm22.46,75.75c0,10.21,4.49,14.09,11.64,14.09s11.64-3.88,11.64-14.09V61.08c0-10.21-4.49-14.09-11.64-14.09s-11.64,3.88-11.64,14.09v77.18h0Z"></path><path class="cls-2" d="m416.89,61.08v5.1c0,14.7-4.49,24.09-14.5,28.79,12.05,4.7,16.74,15.52,16.74,30.63v11.64c0,22.05-11.64,33.89-34.1,33.89h-35.32V28.2h33.89c23.28,0,33.28,10.82,33.28,32.87h.01Zm-44.72-12.45v37.77h8.78c8.37,0,13.48-3.68,13.48-15.11v-7.96c0-10.21-3.47-14.7-11.43-14.7h-10.83Zm0,58.19v43.9h12.86c7.55,0,11.64-3.47,11.64-14.09v-12.46c0-13.27-4.29-17.35-14.5-17.35h-10Z"></path><path class="cls-2" d="m432.61,28.2h22.46v142.92h-22.46V28.2Z"></path><path class="cls-2" d="m532.45,63.12v11.84h-8.98v-12.45c0-15.31-5.92-26.95-21.64-26.95s-21.64,11.64-21.64,26.95v74.32c0,15.31,5.92,26.75,21.64,26.75s21.64-11.43,21.64-26.75v-16.95h8.98v16.33c0,20.62-8.98,36.14-30.83,36.14s-30.83-15.52-30.83-36.14V63.12c0-20.62,8.98-36.14,30.83-36.14s30.83,15.52,30.83,36.14Z"></path><path class="cls-2" d="m547.16,63.12c0-20.83,9.6-36.14,31.24-36.14s31.65,15.31,31.65,36.14v73.1c0,20.83-9.6,36.14-31.65,36.14s-31.24-15.31-31.24-36.14V63.12Zm9.39,73.71c0,15.52,6.13,26.95,21.85,26.95s22.25-11.43,22.25-26.95V62.5c0-15.52-6.33-26.95-22.25-26.95s-21.85,11.43-21.85,26.95v74.32h0Z"></path><path class="cls-2" d="m657,28.2c22.05,0,31.65,14.5,31.65,35.53v71.87c0,21.03-9.6,35.53-31.65,35.53h-31.44V28.2h31.44Zm-.2,134.35c15.93,0,22.46-10.82,22.46-26.54V63.32c0-15.72-6.74-26.54-22.46-26.54h-21.85v125.77h21.85Z"></path><path class="cls-2" d="m752.56,94.36v8.58h-39v59.62h46.96v8.58h-56.35V28.2h56.35v8.58h-46.96v57.58h39Z"></path></g><polygon class="cls-3" points="82.07 35.49 .5 98.08 .5 62.6 82.07 0 82.07 35.49"></polygon><g class="cls-6"><rect class="cls-9" x=".5" y="62.41" width="81.57" height="98.08"></rect></g><g class="cls-5"><rect class="cls-1" x="82.07" y="34.98" width="81.57" height="98.08"></rect></g><g class="cls-4"><rect class="cls-8" x="82.07" y="97.38" width="81.57" height="98.08"></rect></g><g><path class="cls-2" d="m9.96,241.28c-3.24-2.36-6.3-4.59-6.3-8.78s1.72-6.47,5.11-6.47,5.11,2.2,5.11,6.53v1.47h3.38v-1.3c0-6.42-3.04-9.95-8.56-9.95-5.51.04-8.55,3.56-8.55,9.9,0,5.72,3.77,8.46,7.42,11.12,3.21,2.34,6.25,4.54,6.25,8.66s-1.76,6.47-5.22,6.47-5.22-2.18-5.22-6.47v-2.61H0v2.44c0,6.33,3.16,9.95,8.66,9.95s8.66-3.63,8.66-9.95c0-5.64-3.74-8.36-7.36-11Z"></path><path class="cls-2" d="m35.41,222.76c-5.57,0-8.76,3.67-8.76,10.06v19.35c0,6.4,3.19,10.06,8.76,10.06s8.87-3.67,8.87-10.06v-19.35c0-6.3-3.32-10.06-8.87-10.06Zm0,3.26c4.46,0,5.39,3.61,5.39,6.64v19.67c0,3.03-.94,6.64-5.39,6.64s-5.28-3.61-5.28-6.64v-19.67c0-4.4,1.78-6.64,5.28-6.64Z"></path><polygon class="cls-2" points="53.87 261.91 57.35 261.91 57.35 244.78 67.14 244.78 67.14 242.02 66.64 242.01 66.64 241.52 57.35 241.52 57.35 226.36 69.25 226.36 69.25 223.09 53.87 223.09 53.87 261.91"></polygon><polygon class="cls-2" points="77.21 226.36 84.89 226.36 84.89 261.41 85.38 261.41 85.38 261.91 88.36 261.91 88.36 226.36 96.09 226.36 96.09 223.09 77.21 223.09 77.21 226.36"></polygon><polygon class="cls-2" points="126.22 254.72 121.34 223.24 117.84 223.24 112.75 254.94 107.51 223.09 104.07 223.09 110.34 261.91 114.22 261.91 114.23 261.42 114.71 261.5 119.5 233.48 124.16 261.91 128.26 261.91 134.47 223.09 131.24 223.09 126.22 254.72"></polygon><path class="cls-2" d="m150.74,223.02l-8.48,38.88h3.29l1.89-8.37h10.98l1.88,8.37h3.5l-8.65-38.88h-4.42Zm7.07,27.35h-9.78l4.84-21.7,4.94,21.7Z"></path><path class="cls-2" d="m189.95,256.88v-5.89c0-3.94-1.45-6.54-4.31-7.74,2.89-1.22,4.31-3.8,4.31-7.83v-3.3c0-6-2.9-9.04-8.61-9.04h-8.39v38.82h3.48v-16.91h3.45c4.68,0,6.58,1.72,6.58,5.93v5.95c0,2.07.14,3.51.87,4.78l.14.25h3.8l-.5-.77c-.73-1.13-.83-2.79-.83-4.26Zm-3.48-24.53v3.56c0,4.85-2.5,5.82-6.53,5.82h-3.49v-15.37h4.85c3.53,0,5.17,1.9,5.17,5.99Z"></path><polygon class="cls-2" points="200.29 261.91 216.2 261.91 216.2 258.64 203.77 258.64 203.77 243.87 214.1 243.87 214.1 240.59 203.77 240.59 203.77 226.36 216.2 226.36 216.2 223.09 200.29 223.09 200.29 261.91"></polygon><path class="cls-2" d="m249.92,223.1l-9.32-.02v38.82h8.82c5.72,0,8.87-3.51,8.87-9.9v-19.02c0-6.19-2.97-9.69-8.37-9.89Zm-5.83,3.25h5.28c4.5,0,5.45,3.55,5.45,6.53v19.24c0,4.33-1.83,6.53-5.45,6.53h-5.28v-32.29Z"></path><polygon class="cls-2" points="267.88 261.91 283.8 261.91 283.8 258.64 271.37 258.64 271.37 243.87 281.69 243.87 281.69 240.59 271.37 240.59 271.37 226.36 283.8 226.36 283.8 223.09 267.88 223.09 267.88 261.91"></polygon><polygon class="cls-2" points="303.51 256.22 296.32 223.48 295.84 223.59 295.84 223.09 292.68 223.09 301.22 261.91 305.7 261.91 314.13 223.09 310.78 223.09 303.51 256.22"></polygon><polygon class="cls-2" points="323.25 261.91 339.17 261.91 339.17 258.64 326.74 258.64 326.74 243.87 337.06 243.87 337.06 240.59 326.74 240.59 326.74 226.36 339.17 226.36 339.17 223.09 323.25 223.09 323.25 261.91"></polygon><polygon class="cls-2" points="352.18 223.09 348.7 223.09 348.7 261.91 364.07 261.91 364.07 258.64 352.18 258.64 352.18 223.09"></polygon><path class="cls-2" d="m381.88,222.76c-5.57,0-8.76,3.67-8.76,10.06v19.35c0,6.4,3.19,10.06,8.76,10.06s8.87-3.67,8.87-10.06v-19.35c0-6.3-3.32-10.06-8.87-10.06Zm5.39,9.9v19.67c0,3.03-.94,6.64-5.39,6.64s-5.28-3.61-5.28-6.64v-19.67c0-4.4,1.78-6.64,5.28-6.64,4.46,0,5.39,3.61,5.39,6.64Z"></path><path class="cls-2" d="m408.69,223.09h-8.33v38.82h3.48v-15.57h4.2c6.23,0,9.26-3.1,9.26-9.47v-4.1c0-6.34-2.98-9.69-8.61-9.69Zm5.11,9.51v4.44c0,4.29-1.67,6.04-5.76,6.04h-4.2v-16.73h4.85c3.54,0,5.11,1.93,5.11,6.25Z"></path><polygon class="cls-2" points="438.51 254.86 430.97 223.09 426.51 223.09 426.51 261.91 429.73 261.91 429.73 232.16 436.83 261.86 439.69 261.86 439.71 261.36 440.18 261.47 447.08 232.12 447.08 261.91 450.46 261.91 450.46 223.09 446.01 223.09 438.51 254.86"></polygon><polygon class="cls-2" points="460.27 261.91 476.19 261.91 476.19 258.64 463.75 258.64 463.75 243.87 474.08 243.87 474.08 240.59 463.75 240.59 463.75 226.36 476.19 226.36 476.19 223.09 460.27 223.09 460.27 261.91"></polygon><polygon class="cls-2" points="500.32 252.62 489.82 223.09 485.72 223.09 485.72 261.91 488.99 261.91 488.99 230.63 499.98 261.91 503.59 261.91 503.59 223.09 500.32 223.09 500.32 252.62"></polygon><polygon class="cls-2" points="512.03 226.36 519.71 226.36 519.71 261.41 520.19 261.41 520.19 261.91 523.17 261.91 523.17 226.36 530.91 226.36 530.91 223.09 512.03 223.09 512.03 226.36"></polygon><path class="cls-2" d="m562.67,223.09h-8.33v38.82h3.48v-15.57h4.2c6.23,0,9.26-3.1,9.26-9.47v-4.1c0-6.34-2.98-9.69-8.61-9.69Zm5.11,9.51v4.44c0,4.29-1.67,6.04-5.76,6.04h-4.2v-16.73h4.85c3.54,0,5.11,1.93,5.11,6.25Z"></path><polygon class="cls-2" points="583.96 223.09 580.48 223.09 580.48 261.91 595.85 261.91 595.85 258.64 583.96 258.64 583.96 223.09"></polygon><path class="cls-2" d="m612.87,223.02l-8.48,38.88h3.29l1.9-8.37h10.97l1.88,8.37h3.5l-8.65-38.88h-4.42Zm7.08,27.35h-9.78l4.84-21.7,4.94,21.7Z"></path><polygon class="cls-2" points="631.75 226.36 639.43 226.36 639.43 261.41 639.91 261.41 639.91 261.91 642.89 261.91 642.89 226.36 650.63 226.36 650.63 223.09 631.75 223.09 631.75 226.36"></polygon><polygon class="cls-2" points="659.21 261.91 662.69 261.91 662.69 244.78 672.47 244.78 672.47 242.02 671.97 242.01 671.97 241.52 662.69 241.52 662.69 226.36 674.58 226.36 674.58 223.09 659.21 223.09 659.21 261.91"></polygon><path class="cls-2" d="m692.44,222.76c-5.57,0-8.76,3.67-8.76,10.06v19.35c0,6.4,3.19,10.06,8.76,10.06s8.87-3.67,8.87-10.06v-19.35c0-6.3-3.32-10.06-8.87-10.06Zm5.39,9.9v19.67c0,3.03-.93,6.64-5.39,6.64s-5.28-3.61-5.28-6.64v-19.67c0-4.4,1.78-6.64,5.28-6.64,4.46,0,5.39,3.61,5.39,6.64Z"></path><path class="cls-2" d="m727.9,256.88v-5.89c0-3.94-1.45-6.54-4.31-7.74,2.89-1.22,4.31-3.8,4.31-7.83v-3.3c0-6-2.9-9.04-8.61-9.04h-8.39v38.82h3.48v-16.91h3.45c4.68,0,6.58,1.72,6.58,5.93v5.95c0,2.07.14,3.51.87,4.78l.14.25h3.8l-.5-.77c-.74-1.13-.83-2.79-.83-4.26Zm-3.48-24.53v3.56c0,4.85-2.5,5.82-6.53,5.82h-3.49v-15.37h4.85c3.53,0,5.17,1.9,5.17,5.99Z"></path><polygon class="cls-2" points="757.74 223.09 750.25 254.86 742.71 223.09 738.25 223.09 738.25 261.91 741.47 261.91 741.47 232.16 748.57 261.86 751.43 261.86 751.44 261.36 751.92 261.47 758.82 232.12 758.82 261.91 762.2 261.91 762.2 223.09 757.74 223.09"></polygon></g></g></g></svg>